<?xml version="1.0" encoding="iso-8859-1"?>
<!-- Generator: Adobe Illustrator 16.2.0, SVG Export Plug-In . SVG Version: 6.00 Build 0)  -->
<!DOCTYPE svg PUBLIC "-//W3C//DTD SVG 1.1//EN" "http://www.w3.org/Graphics/SVG/1.1/DTD/svg11.dtd">
<svg version="1.1" id="&#x421;&#x43B;&#x43E;&#x439;_1"
	 xmlns="http://www.w3.org/2000/svg" xmlns:xlink="http://www.w3.org/1999/xlink" x="0px" y="0px" width="40px" height="40px"
	 viewBox="0 0 40 40" style="enable-background:new 0 0 40 40;" xml:space="preserve">
<path style="fill: #000000;" d="M20,0c11.045,0,20,8.954,20,20c0,11.047-8.955,20-20,20C8.953,40,0,31.047,0,20C0,8.954,8.953,0,20,0z
	 M13.734,20.948l8.647,8.646c0.52,0.521,1.365,0.521,1.885,0c0.52-0.521,0.52-1.365,0-1.886L16.557,20l7.709-7.71
	c0.52-0.519,0.52-1.364,0-1.885c-0.521-0.52-1.366-0.52-1.885,0l-8.647,8.648c-0.263,0.262-0.393,0.606-0.391,0.947
	C13.344,20.344,13.471,20.685,13.734,20.948z"/>
</svg>
