<?xml version="1.0" encoding="iso-8859-1"?>
<!-- Generator: Adobe Illustrator 16.2.0, SVG Export Plug-In . SVG Version: 6.00 Build 0)  -->
<!DOCTYPE svg PUBLIC "-//W3C//DTD SVG 1.1//EN" "http://www.w3.org/Graphics/SVG/1.1/DTD/svg11.dtd">
<svg version="1.1" id="&#x421;&#x43B;&#x43E;&#x439;_1"
	 xmlns="http://www.w3.org/2000/svg" xmlns:xlink="http://www.w3.org/1999/xlink" x="0px" y="0px" width="40px" height="40px"
	 viewBox="0 0 40 40" style="enable-background:new 0 0 40 40;" xml:space="preserve">
<path style="fill: #000000;" d="M20,0C8.954,0,0,8.954,0,20c0,11.047,8.954,20,20,20c11.047,0,20-8.953,20-20C40,8.954,31.047,0,20,0z
	 M26.266,20.948l-8.647,8.646c-0.52,0.521-1.364,0.521-1.885,0c-0.52-0.521-0.52-1.365,0-1.886L23.442,20l-7.709-7.71
	c-0.52-0.519-0.52-1.364,0-1.885c0.521-0.52,1.366-0.52,1.885,0l8.647,8.648c0.263,0.262,0.393,0.606,0.391,0.947
	C26.656,20.344,26.528,20.685,26.266,20.948z"/>
</svg>
