<?xml version="1.0" encoding="iso-8859-1"?>
<!-- Generator: Adobe Illustrator 16.2.0, SVG Export Plug-In . SVG Version: 6.00 Build 0)  -->
<!DOCTYPE svg PUBLIC "-//W3C//DTD SVG 1.1//EN" "http://www.w3.org/Graphics/SVG/1.1/DTD/svg11.dtd">
<svg version="1.1" id="&#x421;&#x43B;&#x43E;&#x439;_1"
	 xmlns="http://www.w3.org/2000/svg" xmlns:xlink="http://www.w3.org/1999/xlink" x="0px" y="0px" width="50px" height="30.001px"
	 viewBox="0 0 50 30.001" style="enable-background:new 0 0 50 30.001;" xml:space="preserve">
<path d="M48.156,3.75H1.844C0.826,3.75,0,2.91,0,1.875C0,0.84,0.826,0,1.844,0h46.313C49.174,0,50,0.84,50,1.875
	S49.174,3.75,48.156,3.75z"/>
<path d="M1.844,13.125h46.313C49.174,13.125,50,13.965,50,15c0,1.035-0.826,1.875-1.844,1.875H1.844
	C0.826,16.875,0,16.035,0,15C0,13.965,0.826,13.125,1.844,13.125z"/>
<path d="M1.844,26.251h27.875c1.018,0,1.844,0.84,1.844,1.875c0,1.035-0.826,1.875-1.844,1.875H1.844
	C0.826,30.001,0,29.161,0,28.126C0,27.091,0.826,26.251,1.844,26.251z"/>
</svg>
