<?xml version="1.0" encoding="iso-8859-1"?>
<!-- Generator: Adobe Illustrator 16.2.0, SVG Export Plug-In . SVG Version: 6.00 Build 0)  -->
<!DOCTYPE svg PUBLIC "-//W3C//DTD SVG 1.1//EN" "http://www.w3.org/Graphics/SVG/1.1/DTD/svg11.dtd">
<svg version="1.1" id="&#x421;&#x43B;&#x43E;&#x439;_1"
	 xmlns="http://www.w3.org/2000/svg" xmlns:xlink="http://www.w3.org/1999/xlink" x="0px" y="0px" width="159.004px"
	 height="30.001px" viewBox="0 0 159.004 30.001" style="enable-background:new 0 0 159.004 30.001;" xml:space="preserve">
<path d="M11.48,14.079h0.871c2.378,0,3.112-1.625,3.112-5.116s-0.734-5.133-3.112-5.133H11.48V14.079z
	 M7.839,29.621V0.319h4.687c4.493,0,6.578,2.395,6.578,8.645c0,6.25-2.085,8.645-6.578,8.645H11.48v12.013H7.839z"/>
<path d="M26.132,30.001c-3.477,0-5.02-2.274-5.02-5.948V21.67h2.952v2.514c0,1.531,0.66,2.449,1.937,2.449
	c1.364,0,2.024-0.875,2.024-2.318c0-2.712-1.056-4.898-3.08-7.872c-1.893-2.667-4.225-6.604-4.225-9.972
	C20.72,2.799,22.524,0,26.353,0c3.168,0,5.236,2.274,5.236,5.948v2.559h-3.477v-2.69c0-1.443-0.616-2.318-1.76-2.318
	c-1.101,0-1.892,0.744-1.892,2.099c0,3.236,1.1,4.767,3.3,8.091c2.245,3.28,4.005,6.56,4.005,9.927
	C31.765,28.208,28.949,30.001,26.132,30.001"/>
<path d="M40.677,17.974v11.589h-3.873V17.974l-4.18-17.537h3.872l2.465,12.508l2.464-12.508h3.74L40.677,17.974z
	"/>
<path d="M52.236,30.001c-3.3,0-5.721-2.493-5.721-5.991V5.992c0-3.456,2.42-5.991,5.721-5.991
	c3.389,0,5.325,2.449,5.325,5.86v4.09h-3.344V5.642c0-1.093-0.617-1.924-1.892-1.924c-1.276,0-1.892,0.831-1.892,1.924V24.36
	c0,1.094,0.616,1.924,1.892,1.924c1.275,0,1.892-0.83,1.892-1.924v-4.351h3.344v4.133C57.561,27.596,55.625,30.001,52.236,30.001"/>
<path d="M68.138,29.564V17.056h-3.696v12.508H60.57V0.438h3.872v12.902h3.696V0.438h3.873v29.127H68.138z"/>
<path d="M82.808,5.598c0-1.093-0.661-1.88-1.805-1.88c-1.144,0-1.761,0.787-1.761,1.88v18.805
	c0,1.137,0.617,1.881,1.761,1.881c1.144,0,1.805-0.744,1.805-1.881V5.598z M81.003,30.001c-3.3,0-5.677-2.449-5.677-5.948V5.948
	C75.327,2.493,77.703,0,81.003,0c3.301,0,5.677,2.492,5.677,5.948v18.106C86.68,27.552,84.304,30.001,81.003,30.001"/>
<path d="M89.991,29.564V0.438h3.829v25.497h5.325v3.63H89.991z"/>
<path d="M107.948,5.598c0-1.093-0.66-1.88-1.804-1.88c-1.145,0-1.76,0.787-1.76,1.88v18.805
	c0,1.137,0.616,1.881,1.76,1.881c1.144,0,1.804-0.744,1.804-1.881V5.598z M106.144,30.001c-3.301,0-5.677-2.449-5.677-5.948V5.948
	c0-3.455,2.376-5.948,5.677-5.948c3.3,0,5.677,2.492,5.677,5.948v18.106C111.821,27.552,109.444,30.001,106.144,30.001"/>
<path d="M126.504,15.176h-5.578v3.531h1.793v5.872c0,1.093-0.616,1.924-1.848,1.924
	c-1.188,0-1.848-0.831-1.848-1.924V5.554c0-1.006,0.66-1.837,1.804-1.837c1.232,0,1.848,0.787,1.848,1.793v4.264h3.564V5.861
	c0-3.324-2.069-5.861-5.413-5.861c-3.344,0-5.676,2.581-5.676,5.861v18.281c0,3.651,2.13,5.831,5.007,5.858
	c2.566-0.055,4.625-0.801,6.345-2.841V15.176z"/>
<path d="M129.744,0.438h3.872v29.126h-3.872V0.438z"/>
<path d="M137.129,29.564V0.438h9.373v3.586h-5.544v8.791h3.872v3.455h-3.872v9.665h5.544v3.63H137.129z"/>
<path d="M153.372,30.001c-3.477,0-5.588-2.274-5.588-5.948V21.67h3.52v2.514c0,1.531,0.66,2.449,1.937,2.449
	c1.364,0,2.023-0.875,2.023-2.318c0-2.712-1.056-4.898-3.08-7.872c-1.892-2.667-4.224-6.604-4.224-9.972
	c0-3.674,1.804-6.472,5.631-6.472c3.169,0,5.238,2.274,5.238,5.948v2.559h-3.477v-2.69c0-1.443-0.616-2.318-1.761-2.318
	c-1.099,0-1.891,0.744-1.891,2.099c0,3.236,1.1,4.767,3.3,8.091c2.245,3.28,4.004,6.56,4.004,9.927
	C159.004,28.208,156.188,30.001,153.372,30.001"/>
<path style="fill-rule:evenodd;clip-rule:evenodd;" d="M5.937,21.876H2.269v0.011l3.668,0.918v0.626H0.066V22.78h3.357
	v-0.011l-3.357-0.876v-0.667h5.871V21.876L5.937,21.876z M5.948,28.888v0.723H0.081v-0.723v-0.767v-0.722h5.868v0.722L0.96,28.124
	v0.758L5.948,28.888L5.948,28.888z M2.039,24.347v0.719H1.584c-0.497,0-0.708,0.163-0.708,0.35c0,0.29,0.211,0.383,0.649,0.383
	h2.977c0.438,0,0.649-0.094,0.649-0.383c0-0.262-0.21-0.35-0.593-0.35H3.851v-0.719h0.677c0.827,0,1.504,0.347,1.504,1.07
	c0,0.755-0.677,1.106-1.504,1.106H1.503C0.674,26.522,0,26.172,0,25.416c0-0.722,0.729-1.07,1.609-1.07H2.039L2.039,24.347z
	 M5.948,20.61l-3.071-0.827l-2.796,0.769v-0.711L1.942,19.4v-0.011l-1.861-0.403v-0.709l2.796,0.729l3.071-0.816v0.711l-2.136,0.488
	V19.4l2.136,0.502V20.61L5.948,20.61z M4.528,17.58H1.503C0.674,17.58,0,17.23,0,16.474c0-0.755,0.674-1.105,1.503-1.105h3.024
	c0.827,0,1.504,0.35,1.504,1.105C6.032,17.23,5.354,17.58,4.528,17.58L4.528,17.58z M1.526,16.857h2.977
	c0.438,0,0.649-0.091,0.649-0.383c0-0.289-0.21-0.383-0.649-0.383H1.526c-0.438,0-0.649,0.094-0.649,0.383
	C0.876,16.766,1.087,16.857,1.526,16.857L1.526,16.857z M1.534,10.571h2.974c0.438,0,0.652-0.094,0.652-0.384
	c0-0.292-0.214-0.386-0.652-0.386H1.534c-0.438,0-0.652,0.094-0.652,0.386C0.882,10.477,1.096,10.571,1.534,10.571L1.534,10.571z
	 M4.533,11.29H1.509c-0.83,0-1.504-0.348-1.504-1.103c0-0.758,0.674-1.105,1.504-1.105h3.024c0.83,0,1.504,0.347,1.504,1.105
	C6.037,10.943,5.363,11.29,4.533,11.29L4.533,11.29z M3.529,1.005c0,0.129-0.008,0.281-0.025,0.375l2.433,0.518v0.739L3.276,2.02
	C3.124,2.268,2.741,2.533,1.797,2.533c-1.251,0-1.731-0.419-1.731-1.236V0.274h5.871v0.731H3.529L3.529,1.005z M0.896,1.005v0.256
	c0,0.394,0.202,0.54,0.901,0.54S2.7,1.656,2.7,1.261V1.005H0.896L0.896,1.005z M5.937,3.903H2.269v0.011l3.668,0.918v0.626H0.066
	V4.807h3.357V4.797L0.066,3.92V3.252h5.871V3.903L5.937,3.903z M0.066,6.354h0.879v1.144h5.002v0.728H0.066V6.354L0.066,6.354z
	 M4.431,13.62c0.83,0,1.504,0.347,1.504,1.1v0.003h-0.88V14.72c0-0.289-0.21-0.383-0.649-0.383l-4.339-0.003v-0.703v-0.767v-0.722
	h5.871v0.722l-4.988,0.003v0.758L4.431,13.62L4.431,13.62z"/>
</svg>
