<?xml version="1.0" encoding="iso-8859-1"?>
<!-- Generator: Adobe Illustrator 16.2.0, SVG Export Plug-In . SVG Version: 6.00 Build 0)  -->
<!DOCTYPE svg PUBLIC "-//W3C//DTD SVG 1.1//EN" "http://www.w3.org/Graphics/SVG/1.1/DTD/svg11.dtd">
<svg version="1.1" id="&#x421;&#x43B;&#x43E;&#x439;_1"
	 xmlns="http://www.w3.org/2000/svg" xmlns:xlink="http://www.w3.org/1999/xlink" x="0px" y="0px" width="48.205px"
	 height="37.793px" viewBox="0 0 48.205 37.793" style="enable-background:new 0 0 48.205 37.793;" xml:space="preserve">
<path d="M44.03,2.71L42.639,0c-5.175,2.442-9.045,5.652-11.609,9.631c-2.563,3.98-3.845,8.485-3.845,13.513
	c0,3.955,0.855,7.251,2.563,9.888c2.051,3.173,5.006,4.761,8.862,4.761c2.686,0,4.957-0.916,6.812-2.747
	c1.856-1.831,2.783-4.114,2.783-6.848c0-2.93-0.916-5.262-2.747-6.995c-1.831-1.732-4.113-2.6-6.848-2.6
	c-2.001,0-3.856,0.659-5.566,1.978c-0.293-0.879-0.439-1.928-0.439-3.149c0-2.88,1.124-5.724,3.369-8.533
	C38.22,6.092,40.906,4.028,44.03,2.71L44.03,2.71z"/>
<path d="M16.846,2.71L15.454,0C10.279,2.442,6.409,5.652,3.845,9.631C1.282,13.612,0,18.116,0,23.145
	c0,3.955,0.855,7.251,2.563,9.888c2.051,3.173,5.006,4.761,8.862,4.761c2.686,0,4.957-0.916,6.812-2.747
	c1.856-1.831,2.783-4.114,2.783-6.848c0-2.93-0.916-5.262-2.747-6.995c-1.831-1.732-4.113-2.6-6.848-2.6
	c-2.001,0-3.856,0.659-5.566,1.978c-0.293-0.879-0.439-1.928-0.439-3.149c0-2.88,1.124-5.724,3.369-8.533
	C11.036,6.092,13.722,4.028,16.846,2.71L16.846,2.71z"/>
</svg>
